<svg version="1.0" xmlns="http://www.w3.org/2000/svg" width="500" height="500" viewBox="0 0 94 104"><path fill="rgb(255, 66, 76)" d="M45.3.64C44.7 1.39 44 3.3 44 7.1c0 3.2-.2 5.9-.5 5.9s-2.3-1.1-4.5-2.5c-4.4-2.8-6-3.1-7.8-1.3-1.8 1.8.3 4.4 6.8 8l6.1 3.3-.3 6.5-.3 6.4-5.6 3.3-5.6 3.4-6.2-3.7-6.1-3.6v-7.2c0-7.4-1-9.6-4.1-9.6-2.2 0-2.9 2-2.9 8.1V29l-5-3.1c-5.3-3.2-8-3.3-8-.1 0 2.2 2.1 4.3 6.9 6.7l3.4 1.7-4.4 2.6C1 39.7 0 40.7 0 43.2c0 2.8 3.6 2.2 10.4-1.6l6.1-3.4 6.3 3.5 6.2 3.5v13.6l-6.1 3.6c-3.3 2-6.2 3.6-6.4 3.6-.2 0-3.1-1.6-6.5-3.6-6.2-3.6-10.745-4.048-9.763-.677.254.87.298 1.242.763 2.177s1.8 1.7 4 3c2.2 1.2 4 2.5 4 2.9 0 .4-1.6 1.6-3.6 2.7-3.7 2-5.9 4.9-4.9 6.5 1 1.6 4.8 1.1 8-1 1.7-1.1 3.3-2 3.8-2 .4 0 .7 2 .7 4.4 0 5.9.8 7.6 3.5 7.6 2.9 0 3.5-1.7 3.4-9.8-.1-3.5.3-6.7.7-7.1.5-.5 3.4-2.2 6.4-3.8l5.5-3 5.8 3.4 5.7 3.4v12.6l-5.1 2.8c-6.4 3.4-9 6-8.3 8 .9 2.2 4 1.8 9-1.1l4.4-2.6v5.4c0 6.1 1 8.1 3.6 7.6 1.6-.3 2-1.4 2.2-6.6l.3-6.3 4.4 2.5c5 3 8 3.3 8.9 1 .9-2.2-.2-3.3-7.3-7.4L50 83.5l.2-6.3.3-6.4 5.6-3.3 5.6-3.3 6.4 3.7 6.4 3.7.3 8.3.349 6.22c.173 1.13.581 1.716 1.644 1.945 1.692.062 3.707-.865 4.007-6.365.2-3.1.6-5.7.9-5.7.3 0 2.6 1.2 5 2.6 3.5 2 4.7 2.3 5.9 1.4 2.4-2.1 1.6-4-3.1-6.8-2.4-1.5-4.5-3-4.5-3.4 0-.3 2.1-1.8 4.6-3.3 3.5-2 4.4-3.2 4.2-4.8-.5-3.4-3.2-3.2-9.9.8l-6.1 3.6-6.4-3.6-6.4-3.6V45.2l6.3-3.5 6.2-3.5 6.6 3.6c6.8 3.7 9.9 3.8 9.9.3 0-1.2-1.6-2.9-4.5-4.6-2.5-1.4-4.3-3-4-3.5.3-.5 2.4-1.9 4.6-3.2 2.9-1.6 3.9-2.8 3.7-4.3-.4-3-4-3-8.7 0L81 29v-4.9c0-6.2-.7-8.1-3.1-8.1-2.6 0-3.1 1.7-3.3 9.7l-.1 6.6-6.3 3.9-6.3 3.8-5.7-3.3-5.7-3.3-.3-6.5-.3-6.4 5.9-3.3c7.4-4 8.9-5.6 7.2-7.7-1.7-2.1-3.4-1.9-8 1-2.2 1.4-4.2 2.5-4.4 2.5-.3 0-.6-2.86-.8-6.26-.3-6.3-2.908-8.399-4.5-6.1ZM53 42.3l5.5 3.2.3 6.5.3 6.5-5.6 3.3c-3.1 1.7-6 3.2-6.5 3.2-1.3 0-9.7-5-11-6.4-.6-.8-1-3.9-.8-7.3l.3-5.8 5.5-3.2c3-1.8 5.7-3.3 6-3.3.3 0 3 1.5 6 3.3Z"/></svg>